<svg id="Layer_1" data-name="Layer 1" xmlns="http://www.w3.org/2000/svg" viewBox="0 0 326.2 70.28"><defs><style>.cls-1{fill:#fff;}.cls-2{fill:#00e5ff;}</style></defs><path class="cls-1" d="M595.38,374.09l.7-5.83a30.76,30.76,0,0,0,6.56,2.25,26.7,26.7,0,0,0,4.45.39q5.46,0,7.87-2.61a7.85,7.85,0,0,0,1.89-3.27,29.06,29.06,0,0,0,.82-4.71l.7-6.89H618a16,16,0,0,1-2.29,3.47,18.75,18.75,0,0,1-2.13,1.84,13.07,13.07,0,0,1-3.6,2,12.16,12.16,0,0,1-4,.63,12.29,12.29,0,0,1-5.65-1.28,11.11,11.11,0,0,1-4.09-3.43,18.36,18.36,0,0,1-2.86-6.2,29.42,29.42,0,0,1-1-7.47,26,26,0,0,1,4-14.52,13.39,13.39,0,0,1,16.25-5.2,19.46,19.46,0,0,1,5.52,4.25h.4v-4.33h5.79V353.7a63,63,0,0,1-.62,9.83,15.67,15.67,0,0,1-2.93,6.87,12.75,12.75,0,0,1-5.77,4.47,23.2,23.2,0,0,1-8,1.23A39.87,39.87,0,0,1,595.38,374.09Zm22.39-26.3v-15A16.56,16.56,0,0,0,613,328.6a9.67,9.67,0,0,0-4.47-1.12,7.33,7.33,0,0,0-6.89,4.2,22.8,22.8,0,0,0-2.24,10.79q0,6,2.11,9.38a6.56,6.56,0,0,0,5.89,3.44,10.12,10.12,0,0,0,6.32-2.64,22.49,22.49,0,0,0,1.91-1.82A18.44,18.44,0,0,0,617.77,347.79Z" transform="translate(-592.4 -305.82)"/><path class="cls-1" d="M639.89,361.33V323.15h6.63l-.41,7.14h.41a19.57,19.57,0,0,1,5.46-5.82,13.87,13.87,0,0,1,8-2.2,30.42,30.42,0,0,1,6.72.88V334h-5v-5.45a12.86,12.86,0,0,0-2.77-.35,11.66,11.66,0,0,0-6.5,2.06,22.75,22.75,0,0,0-6,6.21v24.88Z" transform="translate(-592.4 -305.82)"/><path class="cls-1" d="M698.83,356.73a22.46,22.46,0,0,1-6.23,4.11,15.3,15.3,0,0,1-5.72,1.16,11.84,11.84,0,0,1-8.13-2.93,9.72,9.72,0,0,1-3.32-7.62,11.37,11.37,0,0,1,4.94-9.47q4.93-3.71,13.34-3.71h4.08V335a13.1,13.1,0,0,0-.39-3.6,4.62,4.62,0,0,0-1.35-2.18,5.89,5.89,0,0,0-2.56-1.38,13,13,0,0,0-3.06-.35,24.36,24.36,0,0,0-5.23.63,25.69,25.69,0,0,0-6.62,2.75v-5.95a43.61,43.61,0,0,1,7.18-2.13,34.11,34.11,0,0,1,6-.51q7.2,0,10.08,3.28a8.94,8.94,0,0,1,2.09,4.06,26.71,26.71,0,0,1,.49,5.51v16c0,1.32,0,2.3.1,3a3.35,3.35,0,0,0,.63,1.72,2.86,2.86,0,0,0,1.07.94,3.45,3.45,0,0,0,1.54.33,10.28,10.28,0,0,0,2.08-.35l.6,4.15a17,17,0,0,1-5,1.12,7.83,7.83,0,0,1-3.75-.93Q699.93,360.14,698.83,356.73Zm-1-4.5v-9.64h-2q-7,0-10.29,2.1a6.41,6.41,0,0,0-3.26,5.64,6.33,6.33,0,0,0,1.59,4.29,6,6,0,0,0,4.77,1.83,10.72,10.72,0,0,0,4.47-1.06A20.17,20.17,0,0,0,697.79,352.23Z" transform="translate(-592.4 -305.82)"/><path class="cls-1" d="M718.27,361.33V323.15h6.63l-.4,7.14h.4a16.57,16.57,0,0,1,5.46-5.94,12.66,12.66,0,0,1,6.9-2.08,9.66,9.66,0,0,1,9.88,7.59,26.35,26.35,0,0,1,.45,5.33v26.14H741V337.08a27.37,27.37,0,0,0-.19-3.52,5.92,5.92,0,0,0-.88-2.42,4.58,4.58,0,0,0-2-1.75,6.57,6.57,0,0,0-2.67-.54,8.41,8.41,0,0,0-5.14,1.85,25.66,25.66,0,0,0-5.21,5.65v25Z" transform="translate(-592.4 -305.82)"/><path class="cls-2" d="M770.17,361.33v-10.4h9.91v10.4Z" transform="translate(-592.4 -305.82)"/><path class="cls-1" d="M826.2,361.33l.4-7.13h-.4a18.75,18.75,0,0,1-5.39,6,11.37,11.37,0,0,1-6.51,2,11.21,11.21,0,0,1-9.73-5.1Q801,352,801,343.49q0-9.42,4.08-15.2a14.29,14.29,0,0,1,5-4.48,12.06,12.06,0,0,1,16.08,3.67h.4l-.4-5.2V305.82h6.62v55.51Zm0-28.64a19,19,0,0,0-4.56-3.91,8.87,8.87,0,0,0-4.46-1.3q-3.61,0-6.37,3.45t-2.75,11.86q0,7.35,2.17,10.42a6.49,6.49,0,0,0,5.48,3.06,9.86,9.86,0,0,0,5.07-1.74A18.93,18.93,0,0,0,826.2,349Z" transform="translate(-592.4 -305.82)"/><path class="cls-1" d="M857.05,361.33v-33H843.87v-5.21h19.81v38.18Zm-.83-46.83v-8.68h8.26v8.68Z" transform="translate(-592.4 -305.82)"/><path class="cls-1" d="M896.51,361.33l-15.06-38.18h6.81l12.08,30.63,12.41-30.63h5.85l-15.46,38.18Z" transform="translate(-592.4 -305.82)"/></svg>